<?xml version="1.0" encoding="utf-8"?>
<!-- Generator: Adobe Illustrator 21.1.0, SVG Export Plug-In . SVG Version: 6.00 Build 0)  -->
<svg version="1.1"
	 id="svg2337" inkscape:version="0.42" sodipodi:docbase="C:\Documents and Settings\Lion\Desktop" sodipodi:docname="dice-prepared.svg" sodipodi:version="0.32" xmlns:cc="http://web.resource.org/cc/" xmlns:dc="http://purl.org/dc/elements/1.1/" xmlns:inkscape="http://www.inkscape.org/namespaces/inkscape" xmlns:rdf="http://www.w3.org/1999/02/22-rdf-syntax-ns#" xmlns:sodipodi="http://inkscape.sourceforge.net/DTD/sodipodi-0.dtd" xmlns:svg="http://www.w3.org/2000/svg"
	 xmlns="http://www.w3.org/2000/svg" xmlns:xlink="http://www.w3.org/1999/xlink" x="0px" y="0px" viewBox="0 0 100 100"
	 style="enable-background:new 0 0 100 100;" xml:space="preserve">
<style type="text/css">
	.st0{stroke:#000000;stroke-width:3;}
</style>
<sodipodi:namedview  bordercolor="#666666" borderopacity="1.0" id="base" inkscape:current-layer="layer1" inkscape:cx="375.00000" inkscape:cy="31.428571" inkscape:document-units="px" inkscape:pageopacity="0.0" inkscape:pageshadow="2" inkscape:window-height="510" inkscape:window-width="704" inkscape:window-x="44" inkscape:window-y="58" inkscape:zoom="0.35000000" pagecolor="#ffffff">
	</sodipodi:namedview>
<g id="g2252" transform="matrix(0.500000,0.000000,0.000000,0.500000,424.3928,-101.7475)">
	
		<path id="path2256" sodipodi:cx="325.00000" sodipodi:cy="227.36218" sodipodi:rx="12.500000" sodipodi:ry="12.500000" sodipodi:type="arc" class="st0" d="
		M-779.9,256.2c0,9-7.3,16.2-16.2,16.2s-16.2-7.3-16.2-16.2c0-9,7.3-16.2,16.2-16.2S-779.9,247.2-779.9,256.2z"/>
	
		<path id="path2258" sodipodi:cx="325.00000" sodipodi:cy="227.36218" sodipodi:rx="12.500000" sodipodi:ry="12.500000" sodipodi:type="arc" class="st0" d="
		M-779.9,349.5c0,9-7.3,16.2-16.2,16.2s-16.2-7.3-16.2-16.2c0-9,7.3-16.2,16.2-16.2S-779.9,340.6-779.9,349.5z"/>
	
		<path id="path2260" sodipodi:cx="325.00000" sodipodi:cy="227.36218" sodipodi:rx="12.500000" sodipodi:ry="12.500000" sodipodi:type="arc" class="st0" d="
		M-779.9,302.8c0,9-7.3,16.2-16.2,16.2s-16.2-7.3-16.2-16.2s7.3-16.2,16.2-16.2S-779.9,293.9-779.9,302.8z"/>
	
		<path id="path2262" sodipodi:cx="325.00000" sodipodi:cy="227.36218" sodipodi:rx="12.500000" sodipodi:ry="12.500000" sodipodi:type="arc" class="st0" d="
		M-686.5,256.2c0,9-7.3,16.2-16.2,16.2s-16.2-7.3-16.2-16.2c0-9,7.3-16.2,16.2-16.2S-686.5,247.2-686.5,256.2z"/>
	
		<path id="path2264" sodipodi:cx="325.00000" sodipodi:cy="227.36218" sodipodi:rx="12.500000" sodipodi:ry="12.500000" sodipodi:type="arc" class="st0" d="
		M-686.5,349.5c0,9-7.3,16.2-16.2,16.2s-16.2-7.3-16.2-16.2c0-9,7.3-16.2,16.2-16.2S-686.5,340.6-686.5,349.5z"/>
	
		<path id="path2266" sodipodi:cx="325.00000" sodipodi:cy="227.36218" sodipodi:rx="12.500000" sodipodi:ry="12.500000" sodipodi:type="arc" class="st0" d="
		M-686.5,302.8c0,9-7.3,16.2-16.2,16.2s-16.2-7.3-16.2-16.2s7.3-16.2,16.2-16.2S-686.5,293.9-686.5,302.8z"/>
</g>
</svg>
