<?xml version="1.0" encoding="utf-8"?>
<!-- Generator: Adobe Illustrator 21.1.0, SVG Export Plug-In . SVG Version: 6.00 Build 0)  -->
<svg version="1.1"
	 id="svg2337" inkscape:version="0.42" sodipodi:docbase="C:\Documents and Settings\Lion\Desktop" sodipodi:docname="dice-prepared.svg" sodipodi:version="0.32" xmlns:cc="http://web.resource.org/cc/" xmlns:dc="http://purl.org/dc/elements/1.1/" xmlns:inkscape="http://www.inkscape.org/namespaces/inkscape" xmlns:rdf="http://www.w3.org/1999/02/22-rdf-syntax-ns#" xmlns:sodipodi="http://inkscape.sourceforge.net/DTD/sodipodi-0.dtd" xmlns:svg="http://www.w3.org/2000/svg"
	 xmlns="http://www.w3.org/2000/svg" xmlns:xlink="http://www.w3.org/1999/xlink" x="0px" y="0px" viewBox="0 0 100 100"
	 style="enable-background:new 0 0 100 100;" xml:space="preserve">
<style type="text/css">
	.st0{stroke:#000000;stroke-width:3;}
</style>
<sodipodi:namedview  bordercolor="#666666" borderopacity="1.0" id="base" inkscape:current-layer="layer1" inkscape:cx="375.00000" inkscape:cy="31.428571" inkscape:document-units="px" inkscape:pageopacity="0.0" inkscape:pageshadow="2" inkscape:window-height="510" inkscape:window-width="704" inkscape:window-x="44" inkscape:window-y="58" inkscape:zoom="0.35000000" pagecolor="#ffffff">
	</sodipodi:namedview>
<g id="g2294" transform="matrix(0.500000,0.000000,0.000000,0.500000,-6.357147,42.00257)">
	
		<path id="path2298" sodipodi:cx="325.00000" sodipodi:cy="227.36218" sodipodi:rx="12.500000" sodipodi:ry="12.500000" sodipodi:type="arc" class="st0" d="
		M81.6-32.6c0,9-7.3,16.2-16.2,16.2c-9,0-16.2-7.3-16.2-16.2s7.3-16.2,16.2-16.2C74.3-48.8,81.6-41.6,81.6-32.6z"/>
	
		<path id="path2300" sodipodi:cx="325.00000" sodipodi:cy="227.36218" sodipodi:rx="12.500000" sodipodi:ry="12.500000" sodipodi:type="arc" class="st0" d="
		M175,60.7c0,9-7.3,16.2-16.2,16.2c-9,0-16.2-7.3-16.2-16.2s7.3-16.2,16.2-16.2C167.7,44.5,175,51.8,175,60.7z"/>
	
		<path id="path2302" sodipodi:cx="325.00000" sodipodi:cy="227.36218" sodipodi:rx="12.500000" sodipodi:ry="12.500000" sodipodi:type="arc" class="st0" d="
		M128.3,14c0,9-7.3,16.2-16.2,16.2S95.9,23,95.9,14s7.3-16.2,16.2-16.2S128.3,5.1,128.3,14z"/>
</g>
</svg>
