<?xml version="1.0" encoding="utf-8"?>
<!-- Generator: Adobe Illustrator 21.1.0, SVG Export Plug-In . SVG Version: 6.00 Build 0)  -->
<svg version="1.1"
	 id="svg2337" inkscape:version="0.42" sodipodi:docbase="C:\Documents and Settings\Lion\Desktop" sodipodi:docname="dice-prepared.svg" sodipodi:version="0.32" xmlns:cc="http://web.resource.org/cc/" xmlns:dc="http://purl.org/dc/elements/1.1/" xmlns:inkscape="http://www.inkscape.org/namespaces/inkscape" xmlns:rdf="http://www.w3.org/1999/02/22-rdf-syntax-ns#" xmlns:sodipodi="http://inkscape.sourceforge.net/DTD/sodipodi-0.dtd" xmlns:svg="http://www.w3.org/2000/svg"
	 xmlns="http://www.w3.org/2000/svg" xmlns:xlink="http://www.w3.org/1999/xlink" x="0px" y="0px" viewBox="0 0 100 100"
	 style="enable-background:new 0 0 100 100;" xml:space="preserve">
<style type="text/css">
	.st0{stroke:#000000;stroke-width:3;}
</style>
<sodipodi:namedview  bordercolor="#666666" borderopacity="1.0" id="base" inkscape:current-layer="layer1" inkscape:cx="375.00000" inkscape:cy="31.428571" inkscape:document-units="px" inkscape:pageopacity="0.0" inkscape:pageshadow="2" inkscape:window-height="510" inkscape:window-width="704" inkscape:window-x="44" inkscape:window-y="58" inkscape:zoom="0.35000000" pagecolor="#ffffff">
	</sodipodi:namedview>
<g id="g2282" transform="matrix(0.500000,0.000000,0.000000,0.500000,66.39284,-89.24748)">
	
		<path id="path2286" sodipodi:cx="325.00000" sodipodi:cy="227.36218" sodipodi:rx="12.500000" sodipodi:ry="12.500000" sodipodi:type="arc" class="st0" d="
		M-63.9,231.2c0,9-7.3,16.2-16.2,16.2s-16.2-7.3-16.2-16.2c0-9,7.3-16.2,16.2-16.2S-63.9,222.2-63.9,231.2z"/>
	
		<path id="path2288" sodipodi:cx="325.00000" sodipodi:cy="227.36218" sodipodi:rx="12.500000" sodipodi:ry="12.500000" sodipodi:type="arc" class="st0" d="
		M-63.9,324.5c0,9-7.3,16.2-16.2,16.2s-16.2-7.3-16.2-16.2s7.3-16.2,16.2-16.2S-63.9,315.6-63.9,324.5z"/>
	
		<path id="path2290" sodipodi:cx="325.00000" sodipodi:cy="227.36218" sodipodi:rx="12.500000" sodipodi:ry="12.500000" sodipodi:type="arc" class="st0" d="
		M29.5,231.2c0,9-7.3,16.2-16.2,16.2S-3,240.1-3,231.2c0-9,7.3-16.2,16.2-16.2S29.5,222.2,29.5,231.2z"/>
	
		<path id="path2292" sodipodi:cx="325.00000" sodipodi:cy="227.36218" sodipodi:rx="12.500000" sodipodi:ry="12.500000" sodipodi:type="arc" class="st0" d="
		M29.5,324.5c0,9-7.3,16.2-16.2,16.2S-3,333.5-3,324.5s7.3-16.2,16.2-16.2S29.5,315.6,29.5,324.5z"/>
</g>
</svg>
